<svg width="800" height="1000" viewBox="0 0 800 1000" fill="none" xmlns="http://www.w3.org/2000/svg">
    <style>
        .statue-fill {
            fill: #ffffff;
        }
        .statue-shadow {
            fill: #f0f0f0;
        }
    </style>
    <defs>
        <linearGradient id="statue-gradient" x1="0%" y1="0%" x2="100%" y2="100%">
            <stop offset="0%" style="stop-color:#ffffff;stop-opacity:1" />
            <stop offset="100%" style="stop-color:#f0f0f0;stop-opacity:1" />
        </linearGradient>
    </defs>
    <!-- 基于上传的雕像图片简化的路径 -->
    <path class="statue-fill" d="M400 100
        C 400 100, 500 150, 500 300
        C 500 450, 450 500, 400 550
        C 350 500, 300 450, 300 300
        C 300 150, 400 100, 400 100
        Z" fill="url(#statue-gradient)"/>
    <!-- 雕像的颈部和胸部 -->
    <path class="statue-fill" d="M350 550
        C 350 550, 400 600, 400 700
        C 400 800, 350 850, 300 900
        C 250 850, 200 800, 200 700
        C 200 600, 350 550, 350 550
        Z" fill="url(#statue-gradient)"/>
    <!-- 添加更多细节的装饰性路径 -->
    <path class="statue-shadow" d="M380 200
        C 380 200, 420 220, 420 280
        C 420 340, 400 360, 380 380
        C 360 360, 340 340, 340 280
        C 340 220, 380 200, 380 200
        Z" />
</svg> 